<svg width="151" height="36" viewBox="0 0 151 36" fill="none" xmlns="http://www.w3.org/2000/svg">
<g clip-path="url(#clip0_1_12)">
<path d="M34.6912 18.688L27.4692 31.844C27.1926 32.2087 26.7874 32.4544 26.3362 32.531H11.8932C11.4419 32.4544 11.0367 32.2087 10.7602 31.844L3.53817 18.688C3.37594 18.2437 3.37594 17.7563 3.53817 17.312L10.7602 4.156C11.0367 3.79127 11.4419 3.54561 11.8932 3.469H26.3362C26.7874 3.54561 27.1926 3.79127 27.4692 4.156L34.6902 17.312C34.8524 17.7563 34.8524 18.2437 34.6902 18.688M37.7742 15.994L30.1002 2.005C29.75 1.43042 29.2669 0.948371 28.6916 0.599448C28.1163 0.250525 27.4655 0.0449397 26.7942 0L11.4362 0C10.7658 0.0458756 10.1163 0.251901 9.54209 0.60078C8.96788 0.94966 8.48574 1.43121 8.13617 2.005L0.454167 15.995C0.155175 16.6213 0 17.3065 0 18.0005C0 18.6945 0.155175 19.3797 0.454167 20.006L8.13217 33.995C8.48156 34.5694 8.96391 35.0514 9.53858 35.4003C10.1132 35.7493 10.7634 35.9549 11.4342 36H26.7922C27.4626 35.9546 28.1123 35.7488 28.6866 35.3999C29.2609 35.0509 29.743 34.5691 30.0922 33.995L37.7712 20.006C38.0702 19.3797 38.2253 18.6945 38.2253 18.0005C38.2253 17.3065 38.0702 16.6213 37.7712 15.995" fill="#00251A"/>
<path d="M7.703 20.735H19.115V18.291H7.703V20.735Z" fill="#00251A"/>
<path d="M9.941 25.318H19.115V22.874H9.941V25.318Z" fill="#00251A"/>
<path d="M12.178 29.898H19.115V27.456H12.178V29.898Z" fill="#00251A"/>
<path d="M62.07 16.803C63.8221 20.0508 65.3912 23.394 66.77 26.817C66.81 26.8934 66.8339 26.9772 66.8401 27.0633C66.8462 27.1493 66.8347 27.2357 66.806 27.317C66.7787 27.3968 66.7339 27.4694 66.6749 27.5297C66.6159 27.5899 66.5442 27.6361 66.465 27.665L65.594 28.065C65.5248 28.1059 65.4466 28.1293 65.3662 28.1332C65.2859 28.137 65.2058 28.1211 65.133 28.087C65.058 28.0506 64.9921 27.9978 64.9402 27.9326C64.8883 27.8673 64.8517 27.7913 64.833 27.71C63.5253 24.3316 62.0351 21.0268 60.369 17.81C60.3189 17.7381 60.2849 17.6561 60.2694 17.5698C60.2538 17.4835 60.2571 17.3949 60.279 17.31C60.2986 17.2274 60.3367 17.1502 60.3904 17.0844C60.4441 17.0186 60.512 16.9658 60.589 16.93L61.289 16.53C61.3529 16.4832 61.4271 16.4523 61.5053 16.4398C61.5836 16.4272 61.6637 16.4335 61.739 16.458C61.816 16.4848 61.8859 16.5286 61.9437 16.5861C62.0015 16.6435 62.0457 16.7132 62.073 16.79M55.257 17.713C54.254 21.2432 52.7583 24.6144 50.814 27.727C50.778 27.7987 50.7269 27.8617 50.6642 27.9117C50.6016 27.9618 50.5288 27.9977 50.451 28.017C50.3746 28.0348 50.2951 28.0351 50.2185 28.0178C50.142 28.0005 50.0703 27.966 50.009 27.917L49.334 27.517C49.2556 27.4824 49.1866 27.4296 49.1327 27.363C49.0788 27.2964 49.0415 27.2179 49.024 27.134C49.0046 27.0486 49.0048 26.9598 49.0245 26.8744C49.0443 26.7891 49.0831 26.7093 49.138 26.641C50.9058 23.6167 52.2668 20.3723 53.186 16.992C53.1971 16.9077 53.2276 16.8272 53.2751 16.7567C53.3227 16.6862 53.386 16.6278 53.46 16.586C53.5312 16.5462 53.6114 16.5252 53.693 16.5252C53.7746 16.5252 53.8548 16.5462 53.926 16.586L54.884 16.941C54.9626 16.9604 55.0357 16.9975 55.0978 17.0495C55.1598 17.1015 55.2091 17.167 55.242 17.241C55.2778 17.3167 55.2974 17.399 55.2994 17.4827C55.3015 17.5664 55.286 17.6496 55.254 17.727M67.144 12.892V12.939C67.1561 13.0245 67.1493 13.1116 67.1241 13.1942C67.0989 13.2768 67.0558 13.3529 66.998 13.417C66.9432 13.478 66.8742 13.5247 66.7971 13.5527C66.72 13.5808 66.6372 13.5895 66.556 13.578H49.135C49.0538 13.5895 48.971 13.5808 48.8939 13.5527C48.8168 13.5247 48.7478 13.478 48.693 13.417C48.6352 13.3529 48.5921 13.2768 48.5669 13.1942C48.5417 13.1116 48.5349 13.0245 48.547 12.939V12.892C48.5349 12.8065 48.5417 12.7194 48.5669 12.6368C48.5921 12.5542 48.6352 12.4781 48.693 12.414C48.7478 12.353 48.8168 12.3064 48.8939 12.2783C48.971 12.2502 49.0538 12.2415 49.135 12.253H56.735V8.49201C56.7229 8.4065 56.7297 8.31938 56.7549 8.23678C56.7801 8.15419 56.8232 8.07814 56.881 8.01401C56.9358 7.95297 57.0048 7.90636 57.0819 7.87828C57.159 7.8502 57.2418 7.84152 57.323 7.85301H58.37C58.4512 7.84152 58.534 7.8502 58.6111 7.87828C58.6882 7.90636 58.7572 7.95297 58.812 8.01401C58.8698 8.07814 58.9129 8.15419 58.9381 8.23678C58.9633 8.31938 58.9701 8.4065 58.958 8.49201V12.256H66.558C66.6392 12.2445 66.722 12.2532 66.7991 12.2813C66.8762 12.3094 66.9452 12.356 67 12.417C67.0578 12.4811 67.1009 12.5572 67.1261 12.6398C67.1513 12.7224 67.1581 12.8095 67.146 12.895" fill="#00251A"/>
<path d="M86.521 21.922H91.621V18.411H86.521V21.922ZM86.521 17.279H91.621V13.933H86.521V17.279ZM80.054 12.731H85.041C85.8829 11.8897 86.6755 11.0006 87.415 10.068H81.815C81.2921 10.9971 80.7025 11.8871 80.051 12.731H80.054ZM79.945 17.279H84.387V13.933H79.944L79.945 17.279ZM79.725 21.922H84.384V18.411H79.944C79.93 19.5843 79.8566 20.7561 79.724 21.922H79.725ZM82.725 8.20601C82.637 8.39501 82.549 8.63001 82.42 8.91301H88.996C89.0772 8.90152 89.16 8.9102 89.2371 8.93828C89.3142 8.96636 89.3832 9.01297 89.438 9.07401C89.4958 9.13776 89.5388 9.21346 89.5641 9.29573C89.5893 9.378 89.5961 9.46481 89.584 9.55001V9.59701C89.5956 9.883 89.5111 10.1646 89.344 10.397C88.7012 11.215 88.0103 11.994 87.275 12.73H93.175C93.2562 12.7185 93.339 12.7272 93.4161 12.7553C93.4932 12.7834 93.5622 12.83 93.617 12.891C93.6748 12.9548 93.7178 13.0305 93.7431 13.1127C93.7683 13.195 93.7751 13.2818 93.763 13.367V25.716C93.763 28.216 93.48 28.544 90.889 28.544C90.628 28.544 89.735 28.497 88.254 28.45C88.1703 28.4551 88.0865 28.4419 88.0084 28.4114C87.9304 28.3808 87.8599 28.3337 87.8018 28.2732C87.7438 28.2127 87.6996 28.1402 87.6724 28.061C87.6451 27.9817 87.6354 27.8974 87.644 27.814C87.622 27.414 87.844 27.201 88.254 27.225C89.647 27.272 90.432 27.343 90.654 27.343C91.59 27.343 91.612 27.319 91.612 25.788V23.078H79.553C79.2673 24.997 78.5863 26.8359 77.553 28.478C77.5189 28.5552 77.4664 28.6228 77.4002 28.6751C77.334 28.7274 77.256 28.7627 77.173 28.778C77.091 28.7914 77.0069 28.7839 76.9286 28.7561C76.8502 28.7283 76.7802 28.6811 76.725 28.619L76.093 28.053C75.9623 27.9566 75.8741 27.8132 75.847 27.653C75.8182 27.4901 75.8518 27.3223 75.941 27.183C77.269 24.826 77.792 22.022 77.792 17.167V15.253L76.878 16.053C76.8255 16.1206 76.7548 16.1719 76.6742 16.2008C76.5936 16.2296 76.5065 16.2349 76.423 16.216C76.3383 16.1944 76.2611 16.1503 76.1994 16.0883C76.1378 16.0263 76.0941 15.9488 76.073 15.864L75.853 15.393C75.7716 15.251 75.7447 15.0843 75.777 14.9239C75.8094 14.7635 75.899 14.6203 76.029 14.521C78.1035 12.6043 79.7315 10.2553 80.798 7.64001C80.8202 7.56509 80.857 7.4953 80.9063 7.43463C80.9555 7.37396 81.0163 7.32361 81.085 7.28645C81.1537 7.24929 81.2291 7.22606 81.3069 7.21809C81.3846 7.21012 81.4632 7.21757 81.538 7.24001L82.344 7.405C82.4319 7.40881 82.517 7.43665 82.5902 7.48549C82.6634 7.53433 82.7218 7.6023 82.759 7.68201C82.799 7.76438 82.8179 7.85543 82.8139 7.94692C82.8098 8.03841 82.7831 8.12745 82.736 8.20601H82.725Z" fill="#00251A"/>
<path d="M110.491 11.839C111.297 12.2392 112.082 12.6801 112.843 13.16C113.369 12.695 113.85 12.1814 114.28 11.626C113.888 11.343 113.453 10.989 112.908 10.588C112.141 11.0755 111.332 11.4942 110.491 11.839ZM115.237 8.60699C114.855 9.01687 114.448 9.40293 114.018 9.76299L115.194 10.636C115.27 10.6787 115.334 10.7388 115.382 10.8113C115.43 10.8838 115.46 10.9667 115.469 11.053C115.48 11.1402 115.471 11.2288 115.442 11.3119C115.413 11.395 115.366 11.4703 115.303 11.532L115.042 11.886L115.064 11.91C115.153 11.9289 115.236 11.9729 115.301 12.0369C115.367 12.1008 115.412 12.182 115.433 12.271C115.454 12.3601 115.45 12.4532 115.42 12.5396C115.39 12.626 115.336 12.7021 115.264 12.759C114.881 13.183 114.466 13.5775 114.023 13.939L115.199 14.812C115.273 14.8564 115.335 14.9172 115.382 14.9897C115.428 15.0622 115.457 15.1444 115.467 15.23C115.478 15.3165 115.469 15.4044 115.442 15.4871C115.414 15.5698 115.369 15.6453 115.308 15.708L115.243 15.802C115.202 15.875 115.144 15.9374 115.075 15.9843C115.005 16.0311 114.926 16.0612 114.843 16.072C114.76 16.0806 114.676 16.0693 114.599 16.0388C114.521 16.0083 114.452 15.9597 114.397 15.897C113.744 15.378 113.243 14.997 112.916 14.741C112.203 15.1968 111.453 15.5916 110.674 15.921C110.541 15.9897 110.389 16.0108 110.242 15.9808C110.095 15.9508 109.963 15.8715 109.868 15.756C109.585 15.473 109.668 15.166 110.088 14.977C110.674 14.681 111.242 14.3501 111.788 13.986C111.156 13.586 110.634 13.255 110.22 13.042C110.136 13.0114 110.062 12.9604 110.003 12.8937C109.944 12.8269 109.903 12.7465 109.883 12.6598C109.863 12.573 109.865 12.4827 109.889 12.397C109.913 12.3113 109.958 12.2329 110.02 12.169L110.196 11.933L109.935 11.673C109.859 11.6197 109.799 11.5457 109.764 11.4597C109.728 11.3738 109.717 11.2794 109.733 11.1878C109.75 11.0961 109.791 11.0109 109.854 10.9422C109.917 10.8735 109.998 10.8242 110.088 10.8C110.684 10.522 111.253 10.1903 111.788 9.80899C111.156 9.40899 110.634 9.07799 110.22 8.86499C110.138 8.83473 110.065 8.78416 110.009 8.71803C109.952 8.6519 109.913 8.57239 109.895 8.48699C109.874 8.39944 109.875 8.30816 109.898 8.22104C109.92 8.13393 109.964 8.05359 110.024 7.98699C110.062 7.92631 110.112 7.87399 110.171 7.83324C110.229 7.79249 110.296 7.76416 110.366 7.74999C110.436 7.73726 110.508 7.7396 110.577 7.75684C110.646 7.77408 110.71 7.80584 110.766 7.84999C111.485 8.18564 112.183 8.56398 112.856 8.98299C113.258 8.63086 113.636 8.25235 113.988 7.84999C114.07 7.71901 114.2 7.62425 114.349 7.58489C114.499 7.54552 114.658 7.56451 114.794 7.63799L115.055 7.75599C115.469 7.94499 115.555 8.27499 115.255 8.60499M104.455 9.12399C105.696 8.98199 107.155 8.69899 108.832 8.34499C108.907 8.31479 108.987 8.30355 109.067 8.31227C109.147 8.321 109.224 8.34942 109.29 8.39499C109.359 8.44302 109.416 8.50586 109.457 8.57889C109.499 8.65191 109.523 8.73327 109.529 8.81699C109.552 8.89791 109.557 8.98278 109.544 9.06581C109.531 9.14883 109.5 9.22803 109.453 9.29799C109.409 9.36489 109.35 9.42033 109.281 9.45965C109.211 9.49898 109.133 9.52104 109.053 9.52399C108.073 9.73599 107.072 9.90199 106.113 10.067L106.157 11.341H108.879C108.96 11.3295 109.043 11.3382 109.12 11.3663C109.197 11.3943 109.266 11.441 109.321 11.502C109.379 11.5658 109.422 11.6415 109.447 11.7237C109.472 11.806 109.479 11.8928 109.467 11.978C109.467 12.1667 109.271 12.261 108.879 12.261H106.201L106.266 13.983H108.879C108.96 13.9715 109.043 13.9802 109.12 14.0083C109.197 14.0363 109.266 14.083 109.321 14.144C109.379 14.2078 109.422 14.2835 109.447 14.3657C109.472 14.448 109.479 14.5348 109.467 14.62C109.467 14.809 109.267 14.927 108.879 14.927H106.309L106.374 16.72H118.955L118.999 14.927H116.45C116.369 14.9385 116.286 14.9298 116.209 14.9017C116.132 14.8736 116.063 14.827 116.008 14.766C115.95 14.7022 115.907 14.6265 115.882 14.5442C115.857 14.462 115.85 14.3752 115.862 14.29C115.862 14.101 116.062 13.983 116.45 13.983H119.043L119.087 12.261H116.452C116.371 12.2725 116.288 12.2638 116.211 12.2357C116.134 12.2076 116.065 12.161 116.01 12.1C115.952 12.0362 115.909 11.9605 115.884 11.8782C115.859 11.796 115.852 11.7092 115.864 11.624C115.864 11.4353 116.06 11.341 116.452 11.341H119.13L119.195 9.68899H116.321C116.24 9.70047 116.157 9.6918 116.08 9.66372C116.003 9.63564 115.934 9.58903 115.879 9.52799C115.821 9.46415 115.779 9.38841 115.753 9.30615C115.728 9.22388 115.722 9.13711 115.734 9.05199C115.734 8.74499 115.934 8.57999 116.322 8.57999H120.828C120.911 8.56885 120.996 8.57855 121.074 8.60822C121.153 8.6379 121.223 8.68661 121.278 8.74999C121.336 8.81633 121.378 8.89471 121.402 8.97946C121.426 9.0642 121.431 9.15319 121.416 9.23999L121.116 16.719H121.816C121.897 16.7075 121.98 16.7162 122.057 16.7443C122.134 16.7723 122.203 16.819 122.258 16.88C122.316 16.9438 122.359 17.0195 122.384 17.1017C122.409 17.184 122.416 17.2708 122.404 17.356V19.956C122.416 20.0412 122.409 20.128 122.384 20.2102C122.359 20.2925 122.316 20.3682 122.258 20.432C122.203 20.493 122.134 20.5396 122.057 20.5677C121.98 20.5958 121.897 20.6045 121.816 20.593H120.836C120.755 20.6045 120.672 20.5958 120.595 20.5677C120.518 20.5396 120.449 20.493 120.394 20.432C120.336 20.3682 120.293 20.2925 120.268 20.2102C120.243 20.128 120.236 20.0412 120.248 19.956V17.808H105.068V19.954C105.08 20.0392 105.073 20.126 105.048 20.2082C105.023 20.2905 104.98 20.3662 104.922 20.43C104.867 20.491 104.798 20.5376 104.721 20.5657C104.644 20.5938 104.561 20.6025 104.48 20.591H103.5C103.419 20.6025 103.336 20.5938 103.259 20.5657C103.182 20.5376 103.113 20.491 103.058 20.43C103 20.3662 102.957 20.2905 102.932 20.2082C102.907 20.126 102.9 20.0392 102.912 19.954V17.354C102.9 17.2688 102.907 17.182 102.932 17.0997C102.957 17.0175 103 16.9418 103.058 16.878C103.113 16.817 103.182 16.7703 103.259 16.7423C103.336 16.7142 103.419 16.7055 103.5 16.717H104.175L103.892 9.80399C103.88 9.72025 103.885 9.63488 103.906 9.55306C103.928 9.47124 103.966 9.39467 104.018 9.32799C104.068 9.26415 104.131 9.2123 104.203 9.17629C104.276 9.14028 104.355 9.12103 104.436 9.11999M119.047 20.02C119.059 20.17 119.029 20.3204 118.96 20.4539C118.89 20.5875 118.785 20.6987 118.655 20.775C117.006 21.8599 115.266 22.7994 113.455 23.583H121.9C121.981 23.5715 122.064 23.5802 122.141 23.6083C122.218 23.6363 122.287 23.683 122.342 23.744C122.4 23.8078 122.443 23.8835 122.468 23.9657C122.493 24.048 122.5 24.1348 122.488 24.22C122.488 24.574 122.288 24.763 121.9 24.763H114.081V27.17C114.081 28.538 113.754 28.77 111.228 28.77C110.357 28.77 109.356 28.746 108.201 28.676C108.122 28.6774 108.043 28.6618 107.97 28.6303C107.897 28.5987 107.832 28.5519 107.779 28.493C107.667 28.3691 107.607 28.2062 107.613 28.039C107.591 27.639 107.813 27.426 108.223 27.449C109.638 27.496 110.553 27.567 110.989 27.567C111.947 27.567 111.838 27.685 111.838 26.6V24.76H103.389C103.308 24.7715 103.225 24.7628 103.148 24.7347C103.071 24.7066 103.002 24.66 102.947 24.599C102.889 24.5352 102.846 24.4595 102.821 24.3772C102.796 24.295 102.789 24.2082 102.801 24.123C102.801 23.769 103.001 23.58 103.389 23.58H111.838V23.132C111.826 23.0468 111.833 22.96 111.858 22.8777C111.883 22.7955 111.926 22.7198 111.984 22.656C112.039 22.595 112.108 22.5483 112.185 22.5203C112.262 22.4922 112.345 22.4835 112.426 22.495H113.036C114.295 21.9227 115.524 21.2848 116.716 20.584H106.83C106.749 20.5955 106.666 20.5868 106.589 20.5587C106.512 20.5306 106.443 20.484 106.388 20.423C106.33 20.3592 106.287 20.2835 106.262 20.2012C106.237 20.119 106.23 20.0322 106.242 19.947C106.242 19.664 106.442 19.499 106.83 19.499H118.46C118.852 19.499 119.048 19.688 119.048 20.018" fill="#00251A"/>
<path d="M147.047 14.434C147.057 14.5176 147.048 14.6023 147.022 14.6823C146.996 14.7622 146.952 14.8355 146.895 14.897C146.84 14.9556 146.772 15 146.696 15.0263C146.62 15.0526 146.539 15.0601 146.46 15.048H140.428C140.347 15.0595 140.264 15.0508 140.187 15.0227C140.11 14.9947 140.041 14.948 139.986 14.887C139.928 14.8231 139.885 14.7472 139.86 14.6648C139.835 14.5824 139.828 14.4954 139.84 14.41C139.84 14.032 140.036 13.843 140.428 13.843H146.458C146.538 13.8331 146.619 13.8415 146.695 13.8676C146.771 13.8938 146.84 13.937 146.897 13.9939C146.953 14.0509 146.996 14.1201 147.022 14.1962C147.048 14.2723 147.056 14.3533 147.046 14.433M149.595 10.891V14.055C149.607 14.1404 149.6 14.2274 149.575 14.3098C149.55 14.3922 149.507 14.4681 149.449 14.532C149.394 14.593 149.325 14.6397 149.248 14.6677C149.171 14.6958 149.088 14.7045 149.007 14.693H148.007C147.926 14.7045 147.843 14.6958 147.766 14.6677C147.689 14.6397 147.62 14.593 147.565 14.532C147.507 14.4681 147.464 14.3922 147.439 14.3098C147.414 14.2273 147.407 14.1404 147.419 14.055V11.455H139.426V14.055C139.438 14.1404 139.431 14.2273 139.406 14.3098C139.381 14.3922 139.338 14.4681 139.28 14.532C139.225 14.593 139.156 14.6397 139.079 14.6677C139.002 14.6958 138.919 14.7045 138.838 14.693H137.902C137.821 14.7045 137.738 14.6958 137.661 14.6677C137.584 14.6397 137.515 14.593 137.46 14.532C137.402 14.4681 137.359 14.3922 137.334 14.3098C137.309 14.2273 137.302 14.1404 137.314 14.055V10.893C137.302 10.8077 137.309 10.7207 137.334 10.6383C137.359 10.5558 137.402 10.48 137.46 10.416C137.515 10.355 137.584 10.3084 137.661 10.2803C137.738 10.2522 137.821 10.2435 137.902 10.255H142.102V8.27201C142.09 8.18666 142.097 8.09967 142.122 8.01723C142.147 7.93479 142.19 7.85892 142.248 7.79501C142.303 7.73398 142.372 7.68736 142.449 7.65929C142.526 7.63121 142.609 7.62253 142.69 7.63401H143.735C143.816 7.62253 143.899 7.63121 143.976 7.65929C144.053 7.68736 144.122 7.73398 144.177 7.79501C144.235 7.85896 144.278 7.93483 144.303 8.01726C144.328 8.09969 144.335 8.18666 144.323 8.27201V10.255H149.004C149.085 10.2435 149.168 10.2522 149.245 10.2803C149.322 10.3084 149.391 10.355 149.446 10.416C149.504 10.4799 149.547 10.5558 149.572 10.6382C149.597 10.7207 149.604 10.8077 149.592 10.893M149.287 18.779C149.299 18.8642 149.292 18.951 149.267 19.0333C149.242 19.1155 149.199 19.1912 149.141 19.255C149.086 19.316 149.017 19.3627 148.94 19.3907C148.863 19.4188 148.78 19.4275 148.699 19.416H145.716V26.004C145.716 27.09 145.563 27.067 146.783 27.067C147.483 27.067 147.589 27.067 147.806 26.429C147.964 25.437 148.037 24.4334 148.026 23.429C148.048 22.98 148.266 22.768 148.658 22.815L149.507 22.909C149.588 22.9103 149.667 22.9298 149.74 22.966C149.812 23.0021 149.875 23.0541 149.925 23.118C149.977 23.1847 150.015 23.2612 150.037 23.343C150.059 23.4248 150.064 23.5102 150.052 23.594C150.03 24.302 150.03 24.727 149.964 25.436C150.009 25.8808 149.963 26.3302 149.828 26.7565C149.693 27.1828 149.473 27.577 149.18 27.915C148.884 28.1014 148.548 28.2148 148.2 28.246C147.708 28.2964 147.214 28.3201 146.719 28.317C143.997 28.317 143.562 28.034 143.562 26.593V19.417H142.299C142.255 24.352 140.84 26.642 136.376 28.484C136.308 28.5208 136.233 28.5427 136.156 28.5484C136.079 28.5541 136.002 28.5434 135.929 28.517C135.855 28.4891 135.787 28.4467 135.729 28.3923C135.671 28.3379 135.624 28.2725 135.592 28.2L135.527 28.058C135.473 27.9878 135.437 27.9058 135.422 27.8189C135.406 27.7319 135.411 27.6425 135.437 27.558C135.461 27.4746 135.505 27.3988 135.567 27.338C135.629 27.2771 135.705 27.2334 135.789 27.211C138.989 25.818 140.101 23.834 140.189 19.419H138.163C138.082 19.4305 137.999 19.4218 137.922 19.3937C137.845 19.3657 137.776 19.319 137.721 19.258C137.663 19.1941 137.62 19.1182 137.595 19.0358C137.57 18.9533 137.563 18.8664 137.575 18.781C137.565 18.6974 137.574 18.6126 137.6 18.5326C137.627 18.4527 137.67 18.3794 137.728 18.318C137.783 18.2593 137.851 18.2149 137.927 18.1886C138.003 18.1623 138.084 18.1549 138.163 18.167H148.702C148.781 18.1549 148.862 18.1623 148.938 18.1886C149.014 18.2149 149.082 18.2593 149.137 18.318C149.195 18.3794 149.238 18.4527 149.265 18.5326C149.291 18.6126 149.3 18.6974 149.29 18.781M137.009 10.372C135.855 13.56 135.332 14.693 134.919 15.826C136.214 17.2611 136.915 19.1352 136.879 21.068C136.879 23.051 136.008 24.068 133.83 24.068C133.756 24.0716 133.683 24.0599 133.614 24.0337C133.545 24.0076 133.483 23.9675 133.43 23.916C133.318 23.8064 133.252 23.6585 133.245 23.502C133.18 23.124 133.377 22.888 133.79 22.888H133.614C134.55 22.888 134.92 22.463 134.92 20.716C134.924 19.0891 134.362 17.5115 133.331 16.253C133.229 16.134 133.165 15.9877 133.145 15.8324C133.126 15.677 133.153 15.5194 133.222 15.379C134 13.5561 134.662 11.6857 135.204 9.77901H132.611V27.988C132.623 28.0733 132.617 28.1602 132.592 28.2427C132.567 28.3251 132.524 28.401 132.466 28.465C132.411 28.5261 132.342 28.5727 132.265 28.6007C132.188 28.6288 132.105 28.6375 132.024 28.626H131.284C131.203 28.6375 131.12 28.6288 131.043 28.6007C130.966 28.5727 130.897 28.5261 130.842 28.465C130.784 28.4011 130.741 28.3252 130.716 28.2428C130.691 28.1603 130.684 28.0734 130.696 27.988V9.28801C130.684 9.20266 130.691 9.11569 130.716 9.03326C130.741 8.95083 130.784 8.87496 130.842 8.81101C130.897 8.74998 130.966 8.70336 131.043 8.67529C131.12 8.64721 131.203 8.63853 131.284 8.65001H136.575C136.656 8.63853 136.739 8.64721 136.816 8.67529C136.893 8.70336 136.962 8.74998 137.017 8.81101C137.075 8.87492 137.118 8.95079 137.143 9.03323C137.168 9.11567 137.175 9.20266 137.163 9.28801V9.57201C137.163 9.84585 137.111 10.1172 137.011 10.372" fill="#00251A"/>
</g>
<defs>
<clipPath id="clip0_1_12">
<rect width="150.061" height="36" fill="white"/>
</clipPath>
</defs>
</svg>
